<svg width="355" height="711" viewBox="0 0 355 711" fill="none" xmlns="http://www.w3.org/2000/svg">
<path d="M354.381 168.892H350.481V61.915C350.481 45.4941 343.958 29.7458 332.346 18.1345C320.735 6.52317 304.987 8.0765e-09 288.566 8.07646e-09H61.916C53.7852 -0.000131315 45.734 1.60122 38.222 4.71262C30.7101 7.82401 23.8846 12.3845 18.1351 18.1338C12.3857 23.883 7.82502 30.7084 4.71338 38.2202C1.60174 45.7321 0.000131321 53.7832 0 61.914V648.798C0 665.219 6.52315 680.967 18.1345 692.579C29.7458 704.19 45.4941 710.713 61.915 710.713H288.563C304.984 710.713 320.732 704.19 332.344 692.579C343.955 680.967 350.478 665.219 350.478 648.798V245.04H354.378L354.381 168.892Z" fill="#3F3D56"/>
<path d="M337.854 57.768V652.943C337.852 665.393 332.906 677.333 324.104 686.138C315.301 694.942 303.362 699.891 290.912 699.895H59.6122C47.1572 699.897 35.2115 694.951 26.4026 686.146C17.5936 677.341 12.6429 665.398 12.6392 652.943V57.768C12.6429 45.3135 17.5934 33.3705 26.402 24.5657C35.2105 15.7609 47.1557 10.8154 59.6102 10.817H87.6682C86.2905 14.205 85.7661 17.8795 86.1411 21.5176C86.5161 25.1558 87.7791 28.6461 89.819 31.6817C91.8588 34.7174 94.6132 37.2056 97.8398 38.9275C101.067 40.6494 104.667 41.5524 108.324 41.557H240.192C243.85 41.5524 247.45 40.6494 250.676 38.9275C253.903 37.2056 256.657 34.7174 258.697 31.6817C260.737 28.6461 262 25.1558 262.375 21.5176C262.75 17.8795 262.226 14.205 260.848 10.817H290.903C303.353 10.8191 315.293 15.7652 324.097 24.5678C332.901 33.3704 337.85 45.309 337.854 57.759V57.768Z" fill="white"/>
<path d="M177.727 295.875C151.393 295.885 126.133 285.434 107.504 266.82C88.8747 248.207 78.4023 222.955 78.3901 196.621V196.533C78.3901 196.325 78.3902 196.106 78.4022 195.898C78.7022 141.498 123.265 97.198 177.727 97.198C204.073 97.1965 229.34 107.661 247.971 126.289C266.601 144.918 277.068 170.184 277.07 196.53C277.071 222.875 266.607 248.143 247.978 266.773C229.35 285.403 204.084 295.871 177.738 295.872H177.727V295.875ZM177.727 99.288C152.053 99.3454 127.439 109.532 109.233 127.634C91.0262 145.736 80.6988 170.292 80.4941 195.965C80.4831 196.187 80.4832 196.365 80.4832 196.534C80.4808 215.77 86.1826 234.574 96.8674 250.57C107.552 266.565 122.74 279.033 140.511 286.396C158.282 293.76 177.837 295.688 196.703 291.938C215.57 288.187 232.901 278.926 246.504 265.326C260.108 251.726 269.373 234.398 273.128 215.532C276.883 196.666 274.959 177.111 267.6 159.338C260.241 141.566 247.777 126.374 231.785 115.686C215.792 104.997 196.989 99.2904 177.753 99.288H177.727Z" fill="#E6E6E6"/>
<path d="M280.448 400.316H74.9109C73.9019 400.315 72.9344 399.914 72.2209 399.2C71.5074 398.487 71.106 397.519 71.105 396.51V345.526C71.1063 344.517 71.5077 343.55 72.2212 342.836C72.9347 342.123 73.9019 341.721 74.9109 341.72H280.448C281.457 341.721 282.424 342.123 283.138 342.836C283.851 343.55 284.253 344.517 284.254 345.526V396.511C284.253 397.52 283.851 398.487 283.138 399.201C282.424 399.914 281.457 400.316 280.448 400.317V400.316ZM74.9109 343.242C74.3054 343.243 73.7247 343.483 73.2965 343.912C72.8683 344.34 72.6275 344.92 72.627 345.526V396.511C72.6275 397.117 72.8683 397.697 73.2965 398.125C73.7247 398.554 74.3054 398.794 74.9109 398.795H280.448C281.054 398.794 281.634 398.554 282.062 398.125C282.491 397.697 282.731 397.117 282.732 396.511V345.526C282.731 344.92 282.491 344.34 282.062 343.912C281.634 343.483 281.054 343.243 280.448 343.242H74.9109Z" fill="#E6E6E6"/>
<path d="M138.475 360.361C137.768 360.361 137.091 360.642 136.591 361.141C136.091 361.641 135.811 362.319 135.811 363.025C135.811 363.732 136.091 364.41 136.591 364.91C137.091 365.409 137.768 365.69 138.475 365.69H264.08C264.43 365.703 264.779 365.648 265.107 365.526C265.435 365.405 265.736 365.22 265.993 364.982C266.25 364.744 266.457 364.458 266.603 364.14C266.75 363.822 266.832 363.479 266.845 363.129C266.859 362.779 266.803 362.43 266.681 362.102C266.56 361.774 266.375 361.473 266.137 361.216C265.9 360.959 265.613 360.752 265.295 360.606C264.978 360.459 264.634 360.377 264.284 360.364C264.245 360.362 264.206 360.362 264.167 360.362H138.475V360.361Z" fill="#E6E6E6"/>
<path d="M138.475 376.347C137.768 376.347 137.091 376.628 136.591 377.127C136.091 377.627 135.811 378.305 135.811 379.011C135.811 379.718 136.091 380.396 136.591 380.896C137.091 381.395 137.768 381.676 138.475 381.676H264.08C264.43 381.689 264.779 381.634 265.107 381.512C265.435 381.391 265.736 381.206 265.993 380.968C266.25 380.73 266.457 380.444 266.603 380.126C266.75 379.808 266.832 379.465 266.845 379.115C266.859 378.765 266.803 378.416 266.681 378.088C266.56 377.76 266.375 377.459 266.137 377.202C265.9 376.945 265.613 376.738 265.295 376.592C264.978 376.445 264.634 376.363 264.284 376.35C264.245 376.348 264.206 376.348 264.167 376.348L138.475 376.347Z" fill="#E6E6E6"/>
<path d="M280.448 485.576H74.9109C73.9019 485.575 72.9344 485.174 72.2209 484.46C71.5074 483.747 71.106 482.779 71.105 481.77V430.786C71.1063 429.777 71.5077 428.81 72.2212 428.096C72.9347 427.383 73.9019 426.981 74.9109 426.98H280.448C281.457 426.981 282.424 427.383 283.138 428.096C283.851 428.81 284.253 429.777 284.254 430.786V481.771C284.252 482.78 283.851 483.747 283.137 484.46C282.424 485.173 281.457 485.575 280.448 485.576ZM74.9109 428.502C74.3054 428.503 73.7247 428.743 73.2965 429.172C72.8683 429.6 72.6275 430.18 72.627 430.786V481.771C72.6275 482.377 72.8683 482.957 73.2965 483.385C73.7247 483.814 74.3054 484.054 74.9109 484.055H280.448C281.054 484.054 281.634 483.814 282.062 483.385C282.491 482.957 282.731 482.377 282.732 481.771V430.786C282.731 430.18 282.491 429.6 282.062 429.172C281.634 428.743 281.054 428.503 280.448 428.502H74.9109Z" fill="#E6E6E6"/>
<path d="M138.475 445.617C137.768 445.617 137.091 445.898 136.591 446.397C136.091 446.897 135.811 447.575 135.811 448.281C135.811 448.988 136.091 449.666 136.591 450.166C137.091 450.665 137.768 450.946 138.475 450.946H264.08C264.777 450.942 265.444 450.665 265.939 450.175C266.434 449.685 266.718 449.021 266.73 448.324C266.741 447.628 266.479 446.955 266 446.449C265.521 445.943 264.863 445.645 264.167 445.618L138.475 445.617Z" fill="#E6E6E6"/>
<path d="M138.475 461.607C137.768 461.607 137.091 461.888 136.591 462.387C136.091 462.887 135.811 463.565 135.811 464.272C135.811 464.978 136.091 465.656 136.591 466.156C137.091 466.655 137.768 466.936 138.475 466.936H264.08C264.777 466.932 265.444 466.656 265.939 466.166C266.434 465.676 266.718 465.011 266.73 464.315C266.741 463.618 266.479 462.945 266 462.439C265.521 461.933 264.863 461.635 264.167 461.608L138.475 461.607Z" fill="#E6E6E6"/>
<path d="M280.448 570.834H74.9109C73.9019 570.833 72.9344 570.432 72.2209 569.718C71.5074 569.005 71.106 568.037 71.105 567.028V516.044C71.1063 515.035 71.5077 514.068 72.2212 513.354C72.9347 512.641 73.9019 512.239 74.9109 512.238H280.448C281.457 512.239 282.424 512.641 283.138 513.354C283.851 514.068 284.253 515.035 284.254 516.044V567.029C284.253 568.038 283.851 569.005 283.138 569.719C282.424 570.432 281.457 570.834 280.448 570.835V570.834ZM74.9109 513.76C74.3054 513.761 73.7247 514.001 73.2965 514.43C72.8683 514.858 72.6275 515.438 72.627 516.044V567.029C72.6275 567.635 72.8683 568.215 73.2965 568.643C73.7247 569.072 74.3054 569.312 74.9109 569.313H280.448C281.054 569.312 281.634 569.072 282.062 568.643C282.491 568.215 282.731 567.635 282.732 567.029V516.044C282.731 515.438 282.491 514.858 282.062 514.43C281.634 514.001 281.054 513.761 280.448 513.76H74.9109Z" fill="#E6E6E6"/>
<path d="M138.475 530.878C137.768 530.878 137.091 531.159 136.591 531.658C136.091 532.158 135.811 532.836 135.811 533.542C135.811 534.249 136.091 534.927 136.591 535.427C137.091 535.926 137.768 536.207 138.475 536.207H264.08C264.43 536.22 264.779 536.165 265.107 536.043C265.435 535.922 265.736 535.737 265.993 535.499C266.25 535.261 266.457 534.975 266.603 534.657C266.75 534.339 266.832 533.996 266.845 533.646C266.859 533.296 266.803 532.947 266.681 532.619C266.56 532.291 266.375 531.99 266.137 531.733C265.9 531.476 265.613 531.269 265.295 531.123C264.978 530.976 264.634 530.894 264.284 530.881C264.245 530.879 264.206 530.879 264.167 530.879L138.475 530.878Z" fill="#E6E6E6"/>
<path d="M138.475 546.865C137.768 546.865 137.091 547.146 136.591 547.645C136.091 548.145 135.811 548.823 135.811 549.529C135.811 550.236 136.091 550.914 136.591 551.414C137.091 551.913 137.768 552.194 138.475 552.194H264.08C264.43 552.207 264.779 552.152 265.107 552.03C265.435 551.909 265.736 551.724 265.993 551.486C266.25 551.248 266.457 550.962 266.603 550.644C266.75 550.326 266.832 549.983 266.845 549.633C266.859 549.283 266.803 548.934 266.681 548.606C266.56 548.278 266.375 547.977 266.137 547.72C265.9 547.463 265.613 547.256 265.295 547.11C264.978 546.963 264.634 546.881 264.284 546.868C264.245 546.866 264.206 546.866 264.167 546.866L138.475 546.865Z" fill="#E6E6E6"/>
<path d="M209.116 194.123H180.146V165.152H175.317V194.123H146.347V198.951H175.317V227.922H180.146V198.951H209.116V194.123Z" fill="#0069F8"/>
<path d="M85.7676 371C85.7676 363.909 85.7676 360.364 87.9704 358.161C90.1732 355.958 93.7185 355.958 100.809 355.958C107.9 355.958 111.445 355.958 113.648 358.161C115.851 360.364 115.851 363.909 115.851 371C115.851 378.091 115.851 381.636 113.648 383.839C111.445 386.042 107.9 386.042 100.809 386.042C93.7185 386.042 90.1732 386.042 87.9704 383.839C85.7676 381.636 85.7676 378.091 85.7676 371Z" stroke="black" stroke-width="2" stroke-linejoin="round"/>
<path d="M107.934 371C107.934 374.935 104.744 378.125 100.809 378.125C96.8741 378.125 93.6841 374.935 93.6841 371C93.6841 367.065 96.8741 363.875 100.809 363.875C104.744 363.875 107.934 367.065 107.934 371Z" stroke="black" stroke-width="2"/>
<path d="M109.53 362.292H109.516" stroke="black" stroke-width="2" stroke-linecap="round" stroke-linejoin="round"/>
<path d="M85.7676 456C85.7676 448.909 85.7676 445.364 87.9704 443.161C90.1732 440.958 93.7185 440.958 100.809 440.958C107.9 440.958 111.445 440.958 113.648 443.161C115.851 445.364 115.851 448.909 115.851 456C115.851 463.091 115.851 466.636 113.648 468.839C111.445 471.042 107.9 471.042 100.809 471.042C93.7185 471.042 90.1732 471.042 87.9704 468.839C85.7676 466.636 85.7676 463.091 85.7676 456Z" stroke="black" stroke-width="2" stroke-linejoin="round"/>
<path d="M109.08 450.375C109.736 450.375 110.267 449.843 110.267 449.188C110.267 448.532 109.736 448 109.08 448V450.375ZM99.9757 470.563C99.9757 471.218 100.507 471.75 101.163 471.75C101.819 471.75 102.351 471.218 102.351 470.563H99.9757ZM97.9966 457.5C97.3407 457.5 96.8091 458.032 96.8091 458.688C96.8091 459.343 97.3407 459.875 97.9966 459.875V457.5ZM105.913 459.875C106.569 459.875 107.101 459.343 107.101 458.688C107.101 458.032 106.569 457.5 105.913 457.5V459.875ZM109.08 448H107.497V450.375H109.08V448ZM99.9757 455.521V470.563H102.351V455.521H99.9757ZM107.497 448C106.037 448 104.823 447.997 103.864 448.127C102.87 448.26 101.972 448.554 101.251 449.275L102.93 450.955C103.137 450.748 103.449 450.579 104.18 450.48C104.945 450.378 105.97 450.375 107.497 450.375V448ZM102.351 455.521C102.351 453.995 102.353 452.969 102.456 452.204C102.554 451.474 102.724 451.161 102.93 450.955L101.251 449.275C100.53 449.996 100.236 450.894 100.102 451.888C99.9732 452.848 99.9757 454.062 99.9757 455.521H102.351ZM97.9966 459.875H105.913V457.5H97.9966V459.875Z" fill="black"/>
<path d="M100.809 557.833C109.553 557.833 116.642 550.745 116.642 542C116.642 533.256 109.553 526.167 100.809 526.167C92.0644 526.167 84.9756 533.256 84.9756 542C84.9756 550.745 92.0644 557.833 100.809 557.833Z" stroke="black" stroke-width="2"/>
<path d="M100.809 557.833C104.307 557.833 107.142 550.745 107.142 542C107.142 533.256 104.307 526.167 100.809 526.167C97.3111 526.167 94.4756 533.256 94.4756 542C94.4756 550.745 97.3111 557.833 100.809 557.833Z" stroke="black" stroke-width="2"/>
<path d="M84.9756 542H116.642" stroke="black" stroke-width="2" stroke-linecap="round" stroke-linejoin="round"/>
</svg>
