<svg width="25" height="25" viewBox="0 0 25 25" fill="none" xmlns="http://www.w3.org/2000/svg">
<path d="M9.375 15.625C9.375 12.6788 9.375 11.2056 10.2903 10.2903C11.2056 9.375 12.6788 9.375 15.625 9.375H16.6667C19.6129 9.375 21.086 9.375 22.0014 10.2903C22.9167 11.2056 22.9167 12.6788 22.9167 15.625V16.6667C22.9167 19.6129 22.9167 21.086 22.0014 22.0014C21.086 22.9167 19.6129 22.9167 16.6667 22.9167H15.625C12.6788 22.9167 11.2056 22.9167 10.2903 22.0014C9.375 21.086 9.375 19.6129 9.375 16.6667V15.625Z" stroke="#141B34" stroke-width="1.5" stroke-linecap="round" stroke-linejoin="round"/>
<path d="M17.7081 9.375C17.7056 6.2947 17.6591 4.69918 16.7624 3.6067C16.5893 3.39572 16.3959 3.20227 16.1849 3.02913C15.0324 2.08333 13.3202 2.08333 9.89575 2.08333C6.47129 2.08333 4.75906 2.08333 3.60662 3.02913C3.39564 3.20226 3.20219 3.39572 3.02904 3.6067C2.08325 4.75915 2.08325 6.47138 2.08325 9.89583C2.08325 13.3203 2.08325 15.0325 3.02904 16.185C3.20218 16.3959 3.39564 16.5894 3.60662 16.7625C4.6991 17.6592 6.29462 17.7057 9.37492 17.7082" stroke="#141B34" stroke-width="1.5" stroke-linecap="round" stroke-linejoin="round"/>
</svg>
