<svg width="25" height="25" viewBox="0 0 25 25" fill="none" xmlns="http://www.w3.org/2000/svg">
<path d="M20.3125 5.72917L19.667 16.172C19.502 18.84 19.4196 20.1741 18.7508 21.1332C18.4201 21.6074 17.9945 22.0076 17.5007 22.3083C16.5022 22.9167 15.1656 22.9167 12.4924 22.9167C9.81575 22.9167 8.4774 22.9167 7.47818 22.3072C6.98417 22.0059 6.55833 21.605 6.22779 21.13C5.55925 20.1694 5.47859 18.8334 5.3173 16.1617L4.6875 5.72917" stroke="#FF0900" stroke-width="1.5" stroke-linecap="round"/>
<path d="M21.875 5.72917H3.125" stroke="#FF0900" stroke-width="1.5" stroke-linecap="round"/>
<path d="M16.7266 5.72917L16.0155 4.26222C15.5431 3.28777 15.307 2.80054 14.8996 2.49668C14.8091 2.42927 14.7135 2.36931 14.6134 2.3174C14.1623 2.08333 13.6208 2.08333 12.5379 2.08333C11.4278 2.08333 10.8727 2.08333 10.4141 2.32721C10.3124 2.38126 10.2154 2.44365 10.1241 2.51372C9.71195 2.8299 9.48173 3.33495 9.0213 4.34506L8.39038 5.72917" stroke="#FF0900" stroke-width="1.5" stroke-linecap="round"/>
<path d="M9.89575 17.1875V10.9375" stroke="#FF0900" stroke-width="1.5" stroke-linecap="round"/>
<path d="M15.1042 17.1875V10.9375" stroke="#FF0900" stroke-width="1.5" stroke-linecap="round"/>
</svg>
