<svg width="25" height="25" viewBox="0 0 25 25" fill="none" xmlns="http://www.w3.org/2000/svg">
<path d="M17.652 3.30526C18.2637 2.69352 18.5696 2.38766 18.9084 2.24138C19.3967 2.03065 19.9501 2.03065 20.4383 2.24138C20.7771 2.38766 21.083 2.69352 21.6947 3.30526C22.3065 3.917 22.6124 4.22286 22.7586 4.56172C22.9694 5.0499 22.9694 5.60337 22.7586 6.09155C22.6124 6.43041 22.3065 6.73627 21.6947 7.34801L16.464 12.5789C15.1752 13.8676 14.5308 14.512 13.7237 14.8937C12.9167 15.2755 12.0098 15.365 10.1961 15.544L9.375 15.625L9.45602 14.804C9.63498 12.9902 9.72447 12.0833 10.1063 11.2762C10.488 10.4692 11.1324 9.82482 12.4211 8.53608L17.652 3.30526Z" stroke="#141B34" stroke-width="1.5" stroke-linejoin="round"/>
<path d="M6.24992 15.625H3.90617C2.8994 15.625 2.08325 16.4411 2.08325 17.4479C2.08325 18.4547 2.8994 19.2708 3.90617 19.2708H13.802C14.8088 19.2708 15.6249 20.087 15.6249 21.0937C15.6249 22.1005 14.8088 22.9167 13.802 22.9167H11.4583" stroke="#141B34" stroke-width="1.5" stroke-linecap="round" stroke-linejoin="round"/>
</svg>
