<svg width="26" height="26" viewBox="0 0 26 26" fill="none" xmlns="http://www.w3.org/2000/svg">
<path d="M15.2466 4.20924C16.0539 3.33459 16.4575 2.89727 16.8864 2.64218C17.9213 2.02666 19.1958 2.00752 20.248 2.59168C20.6841 2.83378 21.1001 3.2588 21.9322 4.10882C22.7643 4.95885 23.1804 5.38386 23.4173 5.82934C23.9892 6.90421 23.9705 8.20602 23.3679 9.26326C23.1182 9.70143 22.6901 10.1138 21.8339 10.9384L11.6466 20.7505C10.024 22.3133 9.21275 23.0947 8.19881 23.4907C7.18488 23.8867 6.07022 23.8576 3.84089 23.7993L3.53758 23.7914C2.8589 23.7736 2.51956 23.7648 2.32231 23.5408C2.12504 23.317 2.15197 22.9713 2.20584 22.2801L2.23509 21.9047C2.38668 19.9588 2.46247 18.986 2.84244 18.1114C3.22239 17.2368 3.87781 16.5268 5.18863 15.1065L15.2466 4.20924Z" stroke="#141B34" stroke-width="1.5" stroke-linejoin="round"/>
<path d="M14.0833 4.33333L21.6666 11.9167" stroke="#141B34" stroke-width="1.5" stroke-linejoin="round"/>
<path d="M15.1667 23.8333H23.8334" stroke="#141B34" stroke-width="1.5" stroke-linecap="round" stroke-linejoin="round"/>
</svg>
