<svg width="38" height="38" viewBox="0 0 38 38" fill="none" xmlns="http://www.w3.org/2000/svg">
<path d="M3.16675 9.5L14.1124 15.7019C18.1476 17.9883 19.8525 17.9883 23.8878 15.7019L34.8334 9.5" stroke="#141B34" stroke-width="2" stroke-linejoin="round"/>
<path d="M3.19172 21.3364C3.29522 26.1903 3.34698 28.617 5.13793 30.4149C6.92887 32.2126 9.42144 32.2752 14.4066 32.4004C17.479 32.4777 20.5212 32.4777 23.5936 32.4004C28.5788 32.2752 31.0713 32.2126 32.8623 30.4149C34.6532 28.617 34.705 26.1903 34.8084 21.3364C34.8418 19.7757 34.8418 18.2243 34.8084 16.6637C34.705 11.8099 34.6532 9.383 32.8623 7.58523C31.0713 5.78747 28.5788 5.72485 23.5936 5.59959C20.5212 5.52239 17.479 5.52239 14.4065 5.59958C9.42144 5.72482 6.92887 5.78744 5.13792 7.58522C3.34696 9.38298 3.29522 11.8099 3.1917 16.6637C3.15842 18.2243 3.15844 19.7757 3.19172 21.3364Z" stroke="#141B34" stroke-width="2" stroke-linejoin="round"/>
</svg>
