<svg width="13" height="13" viewBox="0 0 13 13" fill="none" xmlns="http://www.w3.org/2000/svg">
<path d="M6.4375 3.03485e-08C5.16429 3.03485e-08 3.91966 0.377553 2.86102 1.08491C1.80238 1.79228 0.977268 2.79768 0.490028 3.97398C0.00278927 5.15028 -0.124695 6.44464 0.123698 7.69339C0.37209 8.94215 0.985203 10.0892 1.8855 10.9895C2.7858 11.8898 3.93286 12.5029 5.18161 12.7513C6.43036 12.9997 7.72473 12.8722 8.90103 12.385C10.0773 11.8977 11.0827 11.0726 11.7901 10.014C12.4975 8.95534 12.875 7.71072 12.875 6.4375C12.8751 5.59209 12.7086 4.75495 12.3851 3.97388C12.0617 3.19281 11.5875 2.48311 10.9897 1.88532C10.3919 1.28752 9.6822 0.813344 8.90113 0.489858C8.12005 0.166373 7.28291 -8.206e-05 6.4375 3.03485e-08ZM6.125 3H6.75V7.375H6.125V3ZM6.4375 9.5625C6.31389 9.5625 6.19305 9.52585 6.09027 9.45717C5.98749 9.38849 5.90738 9.29088 5.86008 9.17668C5.81277 9.06247 5.8004 8.93681 5.82451 8.81557C5.84863 8.69433 5.90815 8.58297 5.99556 8.49556C6.08297 8.40815 6.19433 8.34863 6.31557 8.32451C6.43681 8.30039 6.56248 8.31277 6.67668 8.36008C6.79088 8.40738 6.8885 8.48749 6.95717 8.59027C7.02585 8.69305 7.0625 8.81389 7.0625 8.9375C7.06217 9.10316 6.99622 9.26194 6.87908 9.37908C6.76194 9.49622 6.60316 9.56217 6.4375 9.5625Z" fill="#D93025"/>
</svg>
