<svg width="38" height="38" viewBox="0 0 38 38" fill="none" xmlns="http://www.w3.org/2000/svg">
<path d="M3.95825 19C3.95825 11.9093 3.95825 8.36392 6.16105 6.16111C8.36386 3.95831 11.9092 3.95831 18.9999 3.95831C26.0906 3.95831 29.636 3.95831 31.8389 6.16111C34.0416 8.36392 34.0416 11.9093 34.0416 19C34.0416 26.0906 34.0416 29.636 31.8389 31.8389C29.636 34.0416 26.0906 34.0416 18.9999 34.0416C11.9092 34.0416 8.36386 34.0416 6.16105 31.8389C3.95825 29.636 3.95825 26.0906 3.95825 19Z" stroke="black" stroke-width="2" stroke-linejoin="round"/>
<path d="M27.2708 13.375C27.9266 13.375 28.4583 12.8433 28.4583 12.1875C28.4583 11.5317 27.9266 11 27.2708 11V13.375ZM18.1667 33.5625C18.1667 34.2183 18.6983 34.75 19.3542 34.75C20.01 34.75 20.5417 34.2183 20.5417 33.5625H18.1667ZM16.1875 20.5C15.5317 20.5 15 21.0317 15 21.6875C15 22.3433 15.5317 22.875 16.1875 22.875V20.5ZM24.1042 22.875C24.76 22.875 25.2917 22.3433 25.2917 21.6875C25.2917 21.0317 24.76 20.5 24.1042 20.5V22.875ZM27.2708 11H25.6875V13.375H27.2708V11ZM18.1667 18.5208V33.5625H20.5417V18.5208H18.1667ZM25.6875 11C24.2283 11 23.0144 10.9975 22.0545 11.1265C21.0605 11.2602 20.1631 11.5542 19.442 12.2753L21.1213 13.9547C21.3276 13.7484 21.6403 13.5786 22.3711 13.4804C23.1358 13.3775 24.1612 13.375 25.6875 13.375V11ZM20.5417 18.5208C20.5417 16.9945 20.5442 15.9691 20.647 15.2044C20.7453 14.4737 20.915 14.161 21.1213 13.9547L19.442 12.2753C18.7208 12.9965 18.4268 13.8939 18.2932 14.8879C18.1641 15.8477 18.1667 17.0616 18.1667 18.5208H20.5417ZM16.1875 22.875H24.1042V20.5H16.1875V22.875Z" fill="black"/>
</svg>
