<svg width="38" height="38" viewBox="0 0 38 38" fill="none" xmlns="http://www.w3.org/2000/svg">
<path d="M19.0001 18.2084C21.1862 18.2084 22.9584 16.4361 22.9584 14.25C22.9584 12.0639 21.1862 10.2917 19.0001 10.2917C16.814 10.2917 15.0417 12.0639 15.0417 14.25C15.0417 16.4361 16.814 18.2084 19.0001 18.2084Z" stroke="#141B34" stroke-width="2"/>
<path d="M14.25 26.9167L28.5 9.5" stroke="#141B34" stroke-width="2" stroke-linecap="round" stroke-linejoin="round"/>
<path d="M9.5 19L22.1667 3.95831" stroke="#141B34" stroke-width="2" stroke-linecap="round" stroke-linejoin="round"/>
<path d="M11.0833 7.91669L15.8333 11.875" stroke="#141B34" stroke-width="2" stroke-linecap="round" stroke-linejoin="round"/>
<path d="M28.9062 19.8623C27.8449 21.7346 26.6045 23.5019 25.202 25.1402C23.0153 27.7234 19.9479 31.5585 19.0154 34.8334C18.2551 32.1586 15.7234 28.8026 13.9998 26.6309C12.4388 24.5466 10.1364 22.1724 8.93997 19.4693C5.61469 12.1202 10.769 3.15462 18.9885 3.16673C27.4354 3.14344 32.5153 12.4308 28.9062 19.8623Z" stroke="#141B34" stroke-width="2" stroke-linecap="round" stroke-linejoin="round"/>
</svg>
