<svg width="38" height="38" viewBox="0 0 38 38" fill="none" xmlns="http://www.w3.org/2000/svg">
<path d="M3.95825 19C3.95825 11.9093 3.95825 8.36392 6.16105 6.16111C8.36386 3.95831 11.9092 3.95831 18.9999 3.95831C26.0906 3.95831 29.636 3.95831 31.8389 6.16111C34.0416 8.36392 34.0416 11.9093 34.0416 19C34.0416 26.0906 34.0416 29.636 31.8389 31.8389C29.636 34.0416 26.0906 34.0416 18.9999 34.0416C11.9092 34.0416 8.36386 34.0416 6.16105 31.8389C3.95825 29.636 3.95825 26.0906 3.95825 19Z" stroke="black" stroke-width="2" stroke-linejoin="round"/>
<path d="M26.125 19C26.125 22.9351 22.9351 26.125 19 26.125C15.065 26.125 11.875 22.9351 11.875 19C11.875 15.065 15.065 11.875 19 11.875C22.9351 11.875 26.125 15.065 26.125 19Z" stroke="black" stroke-width="2"/>
<path d="M27.7205 10.2917H27.7065" stroke="black" stroke-width="2" stroke-linecap="round" stroke-linejoin="round"/>
</svg>
