<svg width="42" height="42" viewBox="0 0 42 42" fill="none" xmlns="http://www.w3.org/2000/svg">
<path d="M37.875 0.75H4.125C2.26037 0.75 0.75 2.26037 0.75 4.125V37.875C0.75 39.7396 2.26037 41.25 4.125 41.25H37.875C39.7396 41.25 41.25 39.7396 41.25 37.875V4.125C41.25 2.26037 39.7396 0.75 37.875 0.75ZM38.4062 37.875C38.4062 38.1666 38.1666 38.4062 37.875 38.4062H4.125C3.83338 38.4062 3.59375 38.1666 3.59375 37.875V4.125C3.59375 3.83338 3.83338 3.59375 4.125 3.59375H37.875C38.1666 3.59375 38.4062 3.83338 38.4062 4.125V37.875Z" fill="#737373" stroke="black" stroke-width="0.5"/>
<path d="M15.4062 16.8906H11.5078V29.3672H15.4062V16.8906Z" fill="#737373"/>
<path d="M26.0547 16.7734C23.8203 16.7734 22.4219 17.9922 22.1641 18.8516V16.8906H17.7812C17.8359 17.9297 17.7812 29.3672 17.7812 29.3672H22.1641V22.625C22.1641 22.2422 22.1484 21.8672 22.2578 21.6016C22.5547 20.8516 23.2031 20.0703 24.3672 20.0703C25.8906 20.0703 26.5781 21.2266 26.5781 22.9141V29.3672H31V22.4297C31 18.5703 28.8281 16.7734 26.0547 16.7734Z" fill="#737373"/>
</svg>
