<svg width="38" height="38" viewBox="0 0 38 38" fill="none" xmlns="http://www.w3.org/2000/svg">
<path d="M7.91675 14.25C7.91675 9.02529 7.91675 6.41292 9.53987 4.78981C11.163 3.16669 13.7754 3.16669 19.0001 3.16669C24.2248 3.16669 26.8371 3.16669 28.4603 4.78981C30.0834 6.41292 30.0834 9.02529 30.0834 14.25V23.75C30.0834 28.9747 30.0834 31.587 28.4603 33.2103C26.8371 34.8334 24.2248 34.8334 19.0001 34.8334C13.7754 34.8334 11.163 34.8334 9.53987 33.2103C7.91675 31.587 7.91675 28.9747 7.91675 23.75V14.25Z" stroke="#141B34" stroke-width="2" stroke-linecap="round"/>
<path d="M17.4167 30.0833H20.5834" stroke="#141B34" stroke-width="2" stroke-linecap="round" stroke-linejoin="round"/>
<path d="M14.25 3.16669L14.3909 4.01222C14.6963 5.84456 14.849 6.76074 15.4774 7.31825C16.1329 7.89981 17.0622 7.91669 19 7.91669C20.9378 7.91669 21.8671 7.89981 22.5226 7.31825C23.151 6.76074 23.3037 5.84456 23.6091 4.01222L23.75 3.16669" stroke="#141B34" stroke-width="2" stroke-linejoin="round"/>
</svg>
