<svg width="35" height="40" viewBox="0 0 35 40" fill="none" xmlns="http://www.w3.org/2000/svg">
<path d="M32.8531 9.37077C30.856 8.94358 29.0476 7.88967 27.6914 6.36267C26.3353 4.83568 25.5024 2.91544 25.3141 0.881884V0H18.4249V27.3404C18.4207 28.5508 18.0373 29.7294 17.3286 30.7107C16.6199 31.692 15.6216 32.4265 14.474 32.8111C13.3263 33.1957 12.087 33.2111 10.9301 32.855C9.77328 32.4989 8.75707 31.7894 8.02431 30.826C7.28018 29.8465 6.86738 28.6554 6.8458 27.4254C6.82421 26.1955 7.19495 24.9907 7.90426 23.9857C8.61357 22.9806 9.62457 22.2277 10.7907 21.836C11.9567 21.4443 13.2173 21.4342 14.3895 21.8071V14.8081C11.7755 14.4467 9.114 14.9114 6.77718 16.1372C4.44035 17.363 2.54511 19.2886 1.35654 21.6445C0.167977 24.0005 -0.254463 26.6691 0.148311 29.277C0.551085 31.8849 1.75893 34.3016 3.60289 36.1893C5.36138 37.9885 7.61614 39.223 10.0794 39.735C12.5426 40.2471 15.1025 40.0135 17.4324 39.0642C19.7623 38.1148 21.7564 36.4927 23.1602 34.4049C24.564 32.3171 25.3139 29.8583 25.3141 27.3424V13.3722C28.0982 15.3627 31.4364 16.4299 34.8588 16.4238V9.57875C34.1848 9.57958 33.5126 9.50987 32.8531 9.37077Z" fill="#737373"/>
</svg>
