<svg width="38" height="38" viewBox="0 0 38 38" fill="none" xmlns="http://www.w3.org/2000/svg">
<path d="M26.9167 7.125C27.695 6.32431 29.7664 3.16667 30.8751 3.16667M30.8751 3.16667C31.9837 3.16667 34.0552 6.32431 34.8334 7.125M30.8751 3.16667V15.8333" stroke="#141B34" stroke-width="2" stroke-linecap="round" stroke-linejoin="round"/>
<path d="M33.2499 20.5833C33.2469 27.1494 33.1665 30.5113 31.0473 32.6306C28.8445 34.8333 25.2991 34.8333 18.2084 34.8333C11.1177 34.8333 7.57236 34.8333 5.36954 32.6306C3.16675 30.4277 3.16675 26.8823 3.16675 19.7917C3.16675 12.701 3.16675 9.15561 5.36954 6.9528C7.57236 4.75 11.1177 4.75 18.2084 4.75C18.4774 4.75 22.1667 4.75013 22.1667 4.75013" stroke="#141B34" stroke-width="2" stroke-linecap="round"/>
<path d="M3.16675 22.381C4.14686 22.2387 5.13774 22.1684 6.13029 22.1709C10.3292 22.0821 14.4253 23.3904 17.6877 25.8625C20.7132 28.155 22.8392 31.3103 23.7501 34.8333" stroke="#141B34" stroke-width="2" stroke-linejoin="round"/>
<path d="M33.25 26.7523C31.389 25.8098 29.4639 25.3314 27.5282 25.3335C24.5963 25.3219 21.694 26.3994 19 28.5" stroke="#141B34" stroke-width="2" stroke-linejoin="round"/>
</svg>
