<svg width="38" height="38" viewBox="0 0 38 38" fill="none" xmlns="http://www.w3.org/2000/svg">
<path d="M19.0001 34.8333C27.7445 34.8333 34.8334 27.7444 34.8334 19C34.8334 10.2555 27.7445 3.16666 19.0001 3.16666C10.2556 3.16666 3.16675 10.2555 3.16675 19C3.16675 21.1832 3.60861 23.2633 4.4078 25.1555C4.84948 26.2011 5.07033 26.7241 5.09767 27.1193C5.12501 27.5145 5.0087 27.9491 4.77608 28.8186L3.16675 34.8333L9.18147 33.224C10.0509 32.9914 10.4856 32.8751 10.8808 32.9024C11.276 32.9297 11.7988 33.1506 12.8446 33.5923C14.7369 34.3914 16.8168 34.8333 19.0001 34.8333Z" stroke="black" stroke-width="2" stroke-linejoin="round"/>
<path d="M13.5978 19.5974L14.9768 17.8847C15.558 17.1629 16.2764 16.4909 16.3328 15.5298C16.3469 15.287 16.1762 14.1971 15.8345 12.0173C15.7003 11.1606 14.9004 11.0833 14.2077 11.0833C13.3049 11.0833 12.8535 11.0833 12.4053 11.2881C11.8387 11.5469 11.2571 12.2745 11.1294 12.8841C11.0285 13.3664 11.1035 13.6988 11.2536 14.3635C11.8911 17.1868 13.3867 19.975 15.7058 22.2941C18.0249 24.6132 20.8132 26.1089 23.6364 26.7463C24.3011 26.8964 24.6334 26.9715 25.1159 26.8704C25.7254 26.7428 26.453 26.1613 26.7119 25.5946C26.9166 25.1464 26.9166 24.6951 26.9166 23.7923C26.9166 23.0994 26.8393 22.2997 25.9826 22.1654C23.8028 21.8237 22.713 21.653 22.4701 21.6671C21.509 21.7235 20.8371 22.4419 20.1152 23.0231L18.4025 24.402" stroke="black" stroke-width="2"/>
</svg>
